<svg width="60" height="60" viewBox="0 0 60 60" fill="none" xmlns="http://www.w3.org/2000/svg">
<circle cx="30" cy="30" r="30" fill="#D9D9D9" fill-opacity="0.34"/>
<path d="M47 30.5C47 20.8351 39.1649 13 29.5 13C19.8351 13 12 20.8351 12 30.5C12 39.2347 18.3995 46.4746 26.7656 47.7874V35.5586H22.3223V30.5H26.7656V26.6445C26.7656 22.2586 29.3783 19.8359 33.3757 19.8359C35.2903 19.8359 37.293 20.1777 37.293 20.1777V24.4844H35.0863C32.9124 24.4844 32.2344 25.8334 32.2344 27.2174V30.5H37.0879L36.312 35.5586H32.2344V47.7874C40.6005 46.4746 47 39.2348 47 30.5Z" fill="#1877F2"/>
<path d="M36.3101 35.5586L37.0859 30.5H32.2324V27.2174C32.2324 25.8332 32.9104 24.4844 35.0844 24.4844H37.291V20.1777C37.291 20.1777 35.2884 19.8359 33.3736 19.8359C29.3764 19.8359 26.7637 22.2586 26.7637 26.6445V30.5H22.3203V35.5586H26.7637V47.7874C27.6682 47.9291 28.5825 48.0002 29.498 48C30.4136 48.0002 31.3279 47.9291 32.2324 47.7874V35.5586H36.3101Z" fill="white"/>
</svg>
