<svg width="151" height="116" viewBox="0 0 151 116" fill="none" xmlns="http://www.w3.org/2000/svg">
<circle cx="50" cy="66" r="50" fill="#243D8A" fill-opacity="0.5"/>
<path d="M56.1607 0C51.3442 0 46.7249 1.91336 43.3191 5.31915C39.9134 8.72495 38 13.3442 38 18.1607V24.2143H151V18.1607C151 13.3442 149.087 8.72495 145.681 5.31915C142.275 1.91336 137.656 0 132.839 0H56.1607ZM38 70.625V32.2857H151V70.625C151 75.4415 149.087 80.0608 145.681 83.4666C142.275 86.8724 137.656 88.7857 132.839 88.7857H56.1607C51.3442 88.7857 46.7249 86.8724 43.3191 83.4666C39.9134 80.0608 38 75.4415 38 70.625ZM114.679 56.5C113.608 56.5 112.582 56.9252 111.825 57.682C111.068 58.4389 110.643 59.4654 110.643 60.5357C110.643 61.6061 111.068 62.6326 111.825 63.3894C112.582 64.1462 113.608 64.5714 114.679 64.5714H126.786C127.856 64.5714 128.883 64.1462 129.639 63.3894C130.396 62.6326 130.821 61.6061 130.821 60.5357C130.821 59.4654 130.396 58.4389 129.639 57.682C128.883 56.9252 127.856 56.5 126.786 56.5H114.679Z" fill="#243D8A"/>
</svg>
