<svg width="133" height="126" viewBox="0 0 133 126" fill="none" xmlns="http://www.w3.org/2000/svg">
<circle cx="50" cy="76" r="50" fill="#FEEDDE"/>
<path fill-rule="evenodd" clip-rule="evenodd" d="M60.1034 0.0301195L104.605 0.00752976V17.3488L60.1034 17.3714C58.0934 17.3737 56.1355 16.7325 54.5163 15.5416L47.3027 10.218C47.066 10.043 46.8737 9.81487 46.7411 9.55201C46.6086 9.28916 46.5396 8.99889 46.5396 8.70452C46.5396 8.41014 46.6086 8.11987 46.7411 7.85702C46.8737 7.59417 47.066 7.36606 47.3027 7.19102L54.5238 1.85988C56.138 0.669407 58.0902 0.0256935 60.0959 0.0225893L60.1034 0.0301195ZM122.925 17.3337L114.017 17.3413V0H122.955C127.729 0.0752986 131.381 4.31461 131.381 8.65934C131.381 13.0116 127.729 17.2584 122.955 17.3337H122.925ZM78.2654 34.7277C80.7879 35.7367 82.934 36.8436 84.7938 37.943V101.103C81.923 98.9493 78.7844 97.1775 75.4568 95.8325C69.9224 93.6187 61.9407 91.789 49.7649 91.789C48.7664 91.789 47.8088 91.3923 47.1027 90.6863C46.3967 89.9802 46 89.0226 46 88.0241V33.8994C46 32.9009 46.3967 31.9433 47.1027 31.2372C47.8088 30.5312 48.7664 30.1345 49.7649 30.1345C62.7163 30.1345 71.6768 32.0847 78.2654 34.7277ZM103.536 95.8325C99.4695 97.4665 96.6157 99.3414 94.1986 101.096V37.943C96.0585 36.8436 98.212 35.7367 100.735 34.7277C107.323 32.0847 116.284 30.1345 129.235 30.1345C130.234 30.1345 131.191 30.5312 131.897 31.2372C132.603 31.9433 133 32.9009 133 33.8994V88.0241C133 89.0226 132.603 89.9802 131.897 90.6863C131.191 91.3923 130.234 91.789 129.235 91.789C117.059 91.789 109.078 93.6112 103.536 95.8325Z" fill="#FF902C"/>
</svg>
