<svg width="144" height="126" viewBox="0 0 144 126" fill="none" xmlns="http://www.w3.org/2000/svg">
<circle cx="50" cy="76" r="50" fill="#E27D9C" fill-opacity="0.5"/>
<path fill-rule="evenodd" clip-rule="evenodd" d="M95.1852 2.06578C94.5703 1.43514 93.8355 0.933948 93.0239 0.591744C92.2123 0.249539 91.3404 0.0732422 90.4596 0.0732422C89.5788 0.0732422 88.707 0.249539 87.8954 0.591744C87.0838 0.933948 86.3489 1.43514 85.734 2.06578L81.5232 6.38878C80.6944 7.24032 79.6511 7.85231 78.5034 8.16015C77.3557 8.46799 76.1461 8.46026 75.0024 8.13778L69.1944 6.50098C68.3467 6.26241 67.4597 6.19593 66.5859 6.30544C65.712 6.41495 64.869 6.69824 64.1063 7.13862C63.3436 7.579 62.6768 8.16756 62.1451 8.86964C61.6134 9.57171 61.2276 10.3731 61.0104 11.2266L59.5188 17.0742C59.2264 18.2253 58.6287 19.2762 57.7889 20.1161C56.9491 20.9559 55.8982 21.5535 54.747 21.846L48.8994 23.331C48.0459 23.5482 47.2446 23.934 46.5425 24.4657C45.8404 24.9973 45.2519 25.6642 44.8115 26.4268C44.3711 27.1895 44.0878 28.0326 43.9783 28.9064C43.8688 29.7803 43.9353 30.6672 44.1738 31.515L45.8106 37.3296C46.1331 38.4733 46.1408 39.6828 45.833 40.8305C45.5252 41.9783 44.9132 43.0216 44.0616 43.8504L39.7386 48.0612C39.108 48.676 38.6068 49.4109 38.2646 50.2225C37.9224 51.0341 37.7461 51.906 37.7461 52.7868C37.7461 53.6676 37.9224 54.5394 38.2646 55.351C38.6068 56.1626 39.108 56.8975 39.7386 57.5124L44.0616 61.7298C44.912 62.5579 45.5233 63.6001 45.8311 64.7466C46.1389 65.893 46.1318 67.1012 45.8106 68.244L44.1738 74.052C43.9353 74.8997 43.8688 75.7866 43.9783 76.6605C44.0878 77.5343 44.3711 78.3774 44.8115 79.1401C45.2519 79.9028 45.8404 80.5696 46.5425 81.1013C47.2446 81.633 48.0459 82.0188 48.8994 82.236L54.747 83.7276C55.8982 84.02 56.9491 84.6176 57.7889 85.4575C58.6287 86.2973 59.2264 87.3482 59.5188 88.4994L61.0038 94.347C61.2203 95.201 61.6056 96.0031 62.1369 96.7059C62.6683 97.4087 63.335 97.998 64.0978 98.4391C64.8605 98.8801 65.7039 99.164 66.5781 99.2739C67.4523 99.3838 68.3396 99.3176 69.1878 99.0792L75.0024 97.4424C76.1455 97.119 77.3547 97.1103 78.5024 97.4169C79.6501 97.7236 80.6937 98.3344 81.5232 99.1848L85.734 103.508C86.3489 104.138 87.0838 104.64 87.8954 104.982C88.707 105.324 89.5788 105.5 90.4596 105.5C91.3404 105.5 92.2123 105.324 93.0239 104.982C93.8355 104.64 94.5703 104.138 95.1852 103.508L99.4026 99.1848C100.231 98.3355 101.274 97.7255 102.42 97.4188C103.567 97.1122 104.775 97.1203 105.917 97.4424L111.725 99.0792C112.573 99.3176 113.46 99.3838 114.335 99.2739C115.209 99.164 116.052 98.8801 116.815 98.4391C117.578 97.998 118.244 97.4087 118.776 96.7059C119.307 96.0031 119.692 95.201 119.909 94.347L121.4 88.4994C121.693 87.3482 122.29 86.2973 123.13 85.4575C123.97 84.6176 125.021 84.02 126.172 83.7276L132.02 82.2426C132.874 82.0261 133.676 81.6408 134.379 81.1094C135.082 80.5781 135.671 79.9113 136.112 79.1486C136.553 78.3858 136.837 77.5425 136.947 76.6683C137.057 75.7941 136.99 74.9068 136.752 74.0586L135.115 68.2506C134.792 67.1075 134.783 65.8983 135.09 64.7506C135.396 63.6029 136.007 62.5593 136.858 61.7298L141.181 57.5124C141.811 56.8975 142.312 56.1626 142.655 55.351C142.997 54.5394 143.173 53.6676 143.173 52.7868C143.173 51.906 142.997 51.0341 142.655 50.2225C142.312 49.4109 141.811 48.676 141.181 48.0612L136.858 43.8504C136.007 43.0209 135.396 41.9772 135.09 40.8296C134.783 39.6819 134.792 38.4727 135.115 37.3296L136.752 31.5216C136.99 30.6734 137.057 29.786 136.947 28.9118C136.837 28.0376 136.553 27.1943 136.112 26.4315C135.671 25.6688 135.082 25.0021 134.379 24.4707C133.676 23.9393 132.874 23.554 132.02 23.3376L126.172 21.846C125.021 21.5535 123.97 20.9559 123.13 20.1161C122.29 19.2762 121.693 18.2253 121.4 17.0742L119.915 11.2266C119.698 10.3731 119.312 9.57171 118.781 8.86964C118.249 8.16756 117.582 7.579 116.82 7.13862C116.057 6.69824 115.214 6.41495 114.34 6.30544C113.466 6.19593 112.579 6.26241 111.731 6.50098L105.923 8.13778C104.779 8.46154 103.568 8.46992 102.419 8.16205C101.27 7.85417 100.225 7.24148 99.396 6.38878L95.1852 2.06578ZM115.361 41.5008C116.307 40.5888 116.851 39.3387 116.874 38.0254C116.898 36.7122 116.399 35.4434 115.487 34.4982C114.575 33.5529 113.325 33.0087 112.011 32.9852C110.698 32.9617 109.429 33.4608 108.484 34.3728L81.1998 60.72L72.5076 52.041C71.5773 51.1132 70.3165 50.5931 69.0026 50.595C67.6888 50.5968 66.4295 51.1205 65.5017 52.0509C64.574 52.9812 64.0538 54.242 64.0557 55.5559C64.0576 56.8697 64.5813 58.129 65.5116 59.0568L77.649 71.1612C78.5657 72.077 79.8049 72.5969 81.1005 72.6092C82.3962 72.6216 83.6451 72.1254 84.579 71.2272L115.361 41.5008Z" fill="#E27D9C"/>
</svg>
