<svg width="161" height="126" viewBox="0 0 161 126" fill="none" xmlns="http://www.w3.org/2000/svg">
<circle cx="50" cy="76" r="50" fill="#6290B2" fill-opacity="0.5"/>
<path d="M161 45.4091C161 42.7328 159.937 40.1662 158.044 38.2737C156.152 36.3813 153.585 35.3182 150.909 35.3182H119.022L123.865 12.2605C123.966 11.7559 124.017 11.2009 124.017 10.6459C124.017 8.57727 123.159 6.66 121.797 5.29773L116.449 0L83.2495 33.1991C81.3827 35.0659 80.2727 37.5886 80.2727 40.3636V90.8182C80.2727 93.4945 81.3359 96.0611 83.2283 97.9535C85.1207 99.8459 87.6874 100.909 90.3636 100.909H135.773C139.96 100.909 143.543 98.3864 145.056 94.7536L160.294 59.1832C160.748 58.0227 161 56.8118 161 55.5V45.4091ZM50 100.909H70.1818V40.3636H50V100.909Z" fill="#6898BC"/>
</svg>
