<svg width="60" height="60" viewBox="0 0 60 60" fill="none" xmlns="http://www.w3.org/2000/svg">
<circle cx="30" cy="30" r="30" fill="#D9D9D9" fill-opacity="0.34"/>
<path d="M38.7969 13H20.2031C15.6727 13 12 16.6727 12 21.2031V39.7969C12 44.3273 15.6727 48 20.2031 48H38.7969C43.3273 48 47 44.3273 47 39.7969V21.2031C47 16.6727 43.3273 13 38.7969 13Z" fill="url(#paint0_radial_457_341)"/>
<path d="M38.7969 13H20.2031C15.6727 13 12 16.6727 12 21.2031V39.7969C12 44.3273 15.6727 48 20.2031 48H38.7969C43.3273 48 47 44.3273 47 39.7969V21.2031C47 16.6727 43.3273 13 38.7969 13Z" fill="url(#paint1_radial_457_341)"/>
<path d="M29.5012 16.8281C25.7882 16.8281 25.3221 16.8444 23.8639 16.9107C22.4084 16.9774 21.4149 17.2078 20.5456 17.5459C19.6463 17.8951 18.8835 18.3622 18.1236 19.1224C17.3631 19.8824 16.8959 20.6452 16.5456 21.5441C16.2066 22.4136 15.9759 23.4076 15.9104 24.8624C15.8452 26.3208 15.8281 26.787 15.8281 30.5001C15.8281 34.2133 15.8445 34.6779 15.9107 36.1361C15.9777 37.5916 16.2081 38.5851 16.5459 39.4544C16.8954 40.3537 17.3625 41.1165 18.1227 41.8764C18.8824 42.6369 19.6452 43.1052 20.5438 43.4544C21.4138 43.7925 22.4074 44.0229 23.8627 44.0896C25.3211 44.1559 25.7867 44.1721 29.4996 44.1721C33.213 44.1721 33.6776 44.1559 35.1358 44.0896C36.5913 44.0229 37.586 43.7925 38.4559 43.4544C39.3548 43.1052 40.1165 42.6369 40.8761 41.8764C41.6367 41.1165 42.1037 40.3537 42.4541 39.4548C42.7902 38.5851 43.0209 37.5913 43.0893 36.1364C43.1548 34.6781 43.1719 34.2133 43.1719 30.5001C43.1719 26.787 43.1548 26.3211 43.0893 24.8627C43.0209 23.4072 42.7902 22.4138 42.4541 21.5445C42.1037 20.6452 41.6367 19.8824 40.8761 19.1224C40.1157 18.362 39.3551 17.8948 38.4551 17.546C37.5835 17.2078 36.5894 16.9773 35.1339 16.9107C33.6755 16.8444 33.2112 16.8281 29.497 16.8281H29.5012ZM28.2747 19.2919C28.6388 19.2914 29.045 19.2919 29.5012 19.2919C33.1518 19.2919 33.5843 19.3051 35.0259 19.3705C36.3589 19.4315 37.0824 19.6542 37.5644 19.8414C38.2024 20.0891 38.6573 20.3854 39.1355 20.8641C39.614 21.3426 39.9102 21.7983 40.1586 22.4363C40.3458 22.9176 40.5688 23.6411 40.6295 24.9741C40.6949 26.4154 40.7092 26.8482 40.7092 30.497C40.7092 34.1457 40.6949 34.5787 40.6295 36.0199C40.5685 37.3529 40.3458 38.0764 40.1586 38.5578C39.9109 39.1959 39.614 39.6502 39.1355 40.1284C38.657 40.6069 38.2027 40.9031 37.5644 41.1509C37.083 41.3389 36.3589 41.5611 35.0259 41.6221C33.5846 41.6876 33.1518 41.7018 29.5012 41.7018C25.8506 41.7018 25.4179 41.6876 23.9767 41.6221C22.6437 41.5605 21.9202 41.3378 21.4378 41.1507C20.7999 40.9028 20.3441 40.6067 19.8656 40.1281C19.3871 39.6496 19.0909 39.195 18.8425 38.5567C18.6553 38.0753 18.4323 37.3518 18.3716 36.0188C18.3062 34.5775 18.293 34.1446 18.293 30.4936C18.293 26.8425 18.3062 26.412 18.3716 24.9707C18.4326 23.6377 18.6553 22.9142 18.8425 22.4322C19.0904 21.7942 19.3871 21.3385 19.8657 20.86C20.3444 20.3814 20.7999 20.0852 21.438 19.8369C21.9199 19.6489 22.6437 19.4267 23.9767 19.3655C25.2379 19.3085 25.7267 19.2914 28.2747 19.2885V19.2919ZM36.7993 21.562C35.8935 21.562 35.1587 22.2962 35.1587 23.2021C35.1587 24.1079 35.8935 24.8427 36.7993 24.8427C37.705 24.8427 38.4399 24.1079 38.4399 23.2021C38.4399 22.2963 37.705 21.5615 36.7993 21.5615V21.562ZM29.5012 23.4789C25.6239 23.4789 22.4802 26.6227 22.4802 30.5001C22.4802 34.3776 25.6239 37.5198 29.5012 37.5198C33.3787 37.5198 36.5213 34.3776 36.5213 30.5001C36.5213 26.6228 33.3784 23.4789 29.501 23.4789H29.5012ZM29.5012 25.9428C32.0181 25.9428 34.0586 27.983 34.0586 30.5001C34.0586 33.017 32.0181 35.0575 29.5012 35.0575C26.9844 35.0575 24.944 33.017 24.944 30.5001C24.944 27.983 26.9842 25.9428 29.5012 25.9428Z" fill="white"/>
<defs>
<radialGradient id="paint0_radial_457_341" cx="0" cy="0" r="1" gradientUnits="userSpaceOnUse" gradientTransform="translate(21.2969 50.6957) rotate(-90) scale(34.6876 32.2622)">
<stop stop-color="#FFDD55"/>
<stop offset="0.1" stop-color="#FFDD55"/>
<stop offset="0.5" stop-color="#FF543E"/>
<stop offset="1" stop-color="#C837AB"/>
</radialGradient>
<radialGradient id="paint1_radial_457_341" cx="0" cy="0" r="1" gradientUnits="userSpaceOnUse" gradientTransform="translate(6.13736 15.5212) rotate(78.681) scale(15.5055 63.9144)">
<stop stop-color="#3771C8"/>
<stop offset="0.128" stop-color="#3771C8"/>
<stop offset="1" stop-color="#6600FF" stop-opacity="0"/>
</radialGradient>
</defs>
</svg>
