<svg width="57" height="55" viewBox="0 0 57 55" fill="none" xmlns="http://www.w3.org/2000/svg">
<path d="M18.7727 16.442L2.22172 18.8416L1.92858 18.9013C1.48481 19.0191 1.08026 19.2525 0.756237 19.5778C0.432214 19.9031 0.200329 20.3086 0.0842607 20.7528C-0.0318073 21.197 -0.0278993 21.6641 0.0955855 22.1063C0.21907 22.5486 0.457707 22.9501 0.787128 23.2699L12.7775 34.9412L9.94984 51.4274L9.91612 51.7127C9.88895 52.1717 9.98426 52.6296 10.1923 53.0397C10.4003 53.4497 10.7135 53.7971 11.0999 54.0462C11.4864 54.2954 11.932 54.4374 12.3914 54.4577C12.8507 54.4779 13.3072 54.3758 13.714 54.1616L28.5165 46.379L43.2853 54.1616L43.5447 54.281C43.9729 54.4496 44.4383 54.5014 44.8931 54.4308C45.3479 54.3603 45.7757 54.17 46.1327 53.8796C46.4897 53.5891 46.763 53.2089 46.9246 52.778C47.0861 52.3471 47.1301 51.8809 47.0521 51.4274L44.2218 34.9412L56.2174 23.2673L56.4198 23.0468C56.7088 22.6908 56.8983 22.2645 56.969 21.8114C57.0397 21.3583 56.989 20.8946 56.8221 20.4675C56.6552 20.0403 56.3781 19.6651 56.0189 19.3799C55.6598 19.0948 55.2315 18.9099 54.7776 18.8442L38.2266 16.442L30.828 1.44748C30.6139 1.01305 30.2825 0.647213 29.8712 0.391397C29.4599 0.135582 28.9853 0 28.501 0C28.0166 0 27.542 0.135582 27.1307 0.391397C26.7195 0.647213 26.3881 1.01305 26.174 1.44748L18.7727 16.442Z" fill="#FFCE00"/>
</svg>
