<svg width="58" height="56" viewBox="0 0 58 56" fill="none" xmlns="http://www.w3.org/2000/svg">
<path d="M30.0063 47.4277C29.4029 47.1097 28.6816 47.1094 28.0779 47.4268L13.5826 55.0479C12.0638 55.8464 10.2887 54.5567 10.5788 52.8655L13.3479 36.7233C13.4632 36.0512 13.2401 35.3655 12.7515 34.8899L1.00982 23.4605C-0.220437 22.263 0.457764 20.1746 2.15687 19.9283L18.3566 17.5805C19.0312 17.4828 19.6144 17.0592 19.9161 16.4479L27.1642 1.76154C27.9236 0.222874 30.1176 0.222875 30.877 1.76154L38.1251 16.4479C38.4268 17.0592 39.01 17.4828 39.6846 17.5805L55.8843 19.9283C57.5834 20.1746 58.2616 22.263 57.0314 23.4605L45.2897 34.8899C44.8011 35.3655 44.578 36.0512 44.6933 36.7233L47.4615 52.8606C47.7518 54.5527 45.9749 55.8424 44.4561 55.0421L30.0063 47.4277Z" fill="#D9D9D9"/>
</svg>
